<?xml version="1.0" standalone="no"?>
<!DOCTYPE svg PUBLIC "-//W3C//DTD SVG 20010904//EN"
 "http://www.w3.org/TR/2001/REC-SVG-20010904/DTD/svg10.dtd">
<svg version="1.0" xmlns="http://www.w3.org/2000/svg"
 width="260.000000pt" height="260.000000pt" viewBox="0 0 260.000000 260.000000"
 preserveAspectRatio="xMidYMid meet">
<metadata>
Created by potrace 1.11, written by Peter Selinger 2001-2013
</metadata>
<g transform="translate(0.000000,260.000000) scale(0.100000,-0.100000)"
fill="#000000" stroke="none">
<path d="M180 2577 c-50 -16 -143 -112 -158 -163 -9 -31 -12 -306 -12 -1123
l0 -1081 22 -47 c28 -59 79 -110 137 -137 46 -21 49 -21 1110 -24 1177 -3
1126 -5 1213 61 27 20 54 55 73 92 l30 59 0 1085 c0 1086 0 1086 -21 1132 -27
58 -78 109 -137 137 l-47 22 -1087 -1 c-760 -1 -1099 -4 -1123 -12z m1587
-989 c63 -62 116 -123 119 -135 4 -13 -1 -34 -9 -47 -20 -30 -515 -558 -534
-569 -7 -5 -28 -7 -45 -5 -27 3 -62 35 -226 208 -328 347 -345 367 -345 402 0
25 18 48 115 144 l115 114 348 0 348 0 114 -112z"/>
<path d="M1020 1617 c0 -2 13 -13 29 -25 l29 -21 23 25 22 24 -51 0 c-29 0
-52 -1 -52 -3z"/>
<path d="M1240 1616 c0 -2 15 -15 34 -29 l33 -26 34 29 34 29 -67 1 c-38 0
-68 -2 -68 -4z"/>
<path d="M1509 1596 l23 -25 29 21 c16 12 29 23 29 25 0 2 -23 3 -52 3 l-51 0
22 -24z"/>
<path d="M1142 1577 l-32 -33 22 -20 c70 -60 62 -59 103 -23 l36 32 -43 38
c-24 21 -45 38 -49 39 -3 0 -20 -15 -37 -33z"/>
<path d="M1386 1573 l-47 -38 37 -32 37 -32 38 30 c21 17 41 34 43 38 3 4 -10
22 -28 40 l-33 32 -47 -38z"/>
<path d="M887 1523 l-77 -78 74 3 c72 3 74 4 117 49 l44 45 -35 29 c-19 16
-37 29 -40 29 -3 0 -40 -35 -83 -77z"/>
<path d="M1600 1570 l-35 -29 44 -45 c43 -44 45 -45 117 -48 l74 -3 -77 78
c-43 42 -80 77 -83 77 -3 0 -21 -14 -40 -30z"/>
<path d="M1046 1481 l-28 -29 72 -4 72 -3 -39 32 c-21 18 -41 33 -44 33 -3 0
-18 -13 -33 -29z"/>
<path d="M1490 1480 l-34 -30 69 0 69 0 -29 30 c-16 17 -31 30 -34 30 -3 -1
-22 -14 -41 -30z"/>
<path d="M1267 1473 l-26 -28 64 3 65 4 -29 24 c-36 30 -41 30 -74 -3z"/>
<path d="M917 1318 c44 -46 117 -122 162 -171 46 -48 81 -84 79 -80 -1 5 -47
81 -101 171 l-98 162 -61 0 -61 0 80 -82z"/>
<path d="M1032 1362 c13 -21 68 -113 123 -205 54 -91 100 -165 101 -164 1 1
-16 93 -38 205 l-41 202 -84 0 -84 0 23 -38z"/>
<path d="M1227 1368 c4 -18 23 -114 43 -213 l36 -180 38 190 c20 105 40 200
43 213 5 22 3 22 -81 22 l-85 0 6 -32z"/>
<path d="M1394 1194 c-23 -113 -38 -201 -34 -197 6 6 220 365 237 396 2 4 -33
7 -79 7 l-83 0 -41 -206z"/>
<path d="M1569 1263 c-100 -169 -124 -209 -118 -203 3 3 76 80 163 173 l158
167 -60 0 -61 0 -82 -137z"/>
</g>
</svg>
